<?xml version="1.0" encoding="UTF-8" standalone="no"?>
<svg
   width="48"
   height="48"
   version="1.1"
   id="svg29"
   sodipodi:docname="RpnCalcQuickIcon.svg"
   inkscape:version="1.4.3 (0d15f75042, 2025-12-25)"
   xmlns:inkscape="http://www.inkscape.org/namespaces/inkscape"
   xmlns:sodipodi="http://sodipodi.sourceforge.net/DTD/sodipodi-0.dtd"
   xmlns:xlink="http://www.w3.org/1999/xlink"
   xmlns="http://www.w3.org/2000/svg"
   xmlns:svg="http://www.w3.org/2000/svg">
  <sodipodi:namedview
     id="namedview29"
     pagecolor="#ffffff"
     bordercolor="#999999"
     borderopacity="1"
     inkscape:showpageshadow="2"
     inkscape:pageopacity="0"
     inkscape:pagecheckerboard="0"
     inkscape:deskcolor="#d1d1d1"
     inkscape:zoom="17.416667"
     inkscape:cx="23.971291"
     inkscape:cy="24.114832"
     inkscape:window-width="1920"
     inkscape:window-height="1044"
     inkscape:window-x="0"
     inkscape:window-y="0"
     inkscape:window-maximized="1"
     inkscape:current-layer="g29" />
  <defs
     id="defs10">
    <linearGradient
       id="a"
       y1="543.8"
       y2="503.8"
       x2="0"
       gradientUnits="userSpaceOnUse"
       gradientTransform="matrix(1.125 0 0 1-51.07 0)">
      <stop
         stop-color="#2a2c2f"
         id="stop1" />
      <stop
         offset="1"
         stop-color="#424649"
         id="stop2" />
    </linearGradient>
    <linearGradient
       id="b"
       y1="540.92"
       y2="522.55"
       x2="0"
       gradientUnits="userSpaceOnUse"
       gradientTransform="matrix(1 0 0 1.14286 0-77.4)">
      <stop
         stop-color="#197cf1"
         id="stop3" />
      <stop
         offset="1"
         stop-color="#05a0eb"
         id="stop4" />
    </linearGradient>
    <linearGradient
       id="c"
       y1="542.8"
       y2="533.8"
       gradientUnits="userSpaceOnUse"
       x2="0"
       gradientTransform="translate(0-28)">
      <stop
         stop-color="#bcb4a1"
         id="stop5" />
      <stop
         offset="1"
         stop-color="#c5bfad"
         id="stop6" />
    </linearGradient>
    <linearGradient
       id="d"
       y1="540.8"
       y2="531.8"
       gradientUnits="userSpaceOnUse"
       x2="0">
      <stop
         stop-color="#1e1f21"
         id="stop7" />
      <stop
         offset="1"
         stop-color="#242628"
         id="stop8" />
    </linearGradient>
    <linearGradient
       xlink:href="#d"
       id="e"
       y1="528.8"
       y2="519.8"
       gradientUnits="userSpaceOnUse"
       x2="0" />
    <linearGradient
       id="f"
       y1="20"
       x1="32"
       y2="30"
       x2="42"
       gradientUnits="userSpaceOnUse">
      <stop
         stop-color="#383e51"
         id="stop9" />
      <stop
         offset="1"
         stop-color="#655c6f"
         stop-opacity="0"
         id="stop10" />
    </linearGradient>
    <linearGradient
       xlink:href="#f"
       id="g"
       y1="531.8"
       x1="404.57"
       y2="543.8"
       x2="416.57"
       gradientUnits="userSpaceOnUse"
       gradientTransform="translate(-384.57-499.8)" />
    <linearGradient
       xlink:href="#f"
       id="h"
       y1="531.8"
       x1="404.57"
       y2="543.8"
       gradientUnits="userSpaceOnUse"
       x2="416.57"
       gradientTransform="translate(0-12)" />
    <linearGradient
       xlink:href="#f"
       id="i"
       y1="531.8"
       x1="404.57"
       y2="543.8"
       gradientUnits="userSpaceOnUse"
       x2="416.57"
       gradientTransform="translate(-12-12)" />
    <linearGradient
       xlink:href="#f"
       id="j"
       y1="531.8"
       x1="404.57"
       y2="543.8"
       gradientUnits="userSpaceOnUse"
       x2="416.57"
       gradientTransform="translate(-12)" />
  </defs>
  <g
     transform="translate(-384.57-499.8)"
     id="g29">
    <rect
       width="36"
       x="390.57"
       y="503.8"
       fill="url(#a)"
       rx="0"
       height="40"
       id="rect10" />
    <g
       fill-rule="evenodd"
       id="g13">
      <path
         opacity=".2"
         fill="url(#h)"
         d="m413.57 519.8l-9 9 3 3h18z"
         id="path10" />
      <path
         opacity=".2"
         fill="url(#i)"
         d="m401.57 519.8l-9 9 3 3h18z"
         id="path11" />
      <path
         opacity=".2"
         fill="url(#j)"
         d="m401.57 531.8l-9 9 3 3h18z"
         id="path12" />
      <path
         opacity=".2"
         fill="url(#g)"
         d="m29 32l-9 9 3 3h18z"
         transform="translate(384.57 499.8)"
         id="path13" />
    </g>
    <rect
       width="36"
       x="390.57"
       y="542.8"
       fill="#1c1e20"
       height="1"
       id="rect13" />
    <path
       opacity=".2"
       fill="url(#f)"
       fill-rule="evenodd"
       d="m40 20l-8 21 3 3h7v-22z"
       transform="translate(384.57 499.8)"
       id="path14" />
    <rect
       width="8"
       x="416.57001"
       y="519.79999"
       fill="url(#b)"
       rx="0"
       height="21"
       id="rect14"
       style="display:inline;fill:#bd93f9;fill-opacity:1" />
    <g
       id="display-two-row">
      <rect
         width="32"
         x="392.57"
         y="505.8"
         fill="url(#c)"
         height="9"
         id="rect15"
         style="fill:#bcb4a1;fill-opacity:1" />
      <!-- divider between the two text rows -->
      <path
         d="M392.57 510.3H424.57"
         stroke="#a9a290"
         stroke-width="0.5"
         opacity="0.7"
         id="path15" />
      <!-- top row: Y -->
      <text
         x="394.0"
         y="509.2"
         font-family="monospace"
         font-size="3.2"
         font-weight="700"
         fill="#383432"
         id="text15">Y:</text>
      <text
         x="423.2"
         y="509.2"
         text-anchor="end"
         font-family="monospace"
         font-size="3.2"
         font-weight="700"
         fill="#383432"
         id="text16">3.1416</text>
      <!-- bottom row: X -->
      <text
         x="394.0"
         y="513.3"
         font-family="monospace"
         font-size="3.2"
         font-weight="700"
         fill="#383432"
         id="text17">X:</text>
      <text
         x="423.2"
         y="513.3"
         text-anchor="end"
         font-family="monospace"
         font-size="3.2"
         font-weight="700"
         fill="#383432"
         id="text18">2.7183</text>
    </g>
    <g
       id="textEnter"
       transform="translate(0.05741627,-0.3444976)">
      <text
         x="420.57001"
         y="523"
         font-family="monospace"
         font-size="4px"
         font-weight="700"
         fill="#ffffff"
         text-anchor="middle"
         dominant-baseline="middle"
         id="text1">E</text>
      <text
         x="420.57001"
         y="527"
         font-family="monospace"
         font-size="4px"
         font-weight="700"
         fill="#ffffff"
         text-anchor="middle"
         dominant-baseline="middle"
         id="text2">N</text>
      <text
         x="420.57001"
         y="531"
         font-family="monospace"
         font-size="4px"
         font-weight="700"
         fill="#ffffff"
         text-anchor="middle"
         dominant-baseline="middle"
         id="text3">T</text>
      <text
         x="420.57001"
         y="535"
         font-family="monospace"
         font-size="4px"
         font-weight="700"
         fill="#ffffff"
         text-anchor="middle"
         dominant-baseline="middle"
         id="text4">E</text>
      <text
         x="420.57001"
         y="539"
         font-family="monospace"
         font-size="4px"
         font-weight="700"
         fill="#ffffff"
         text-anchor="middle"
         dominant-baseline="middle"
         id="text5">R</text>
    </g>
    <rect
       width="9"
       x="392.57"
       y="531.8"
       fill="url(#d)"
       rx="0"
       height="9"
       id="rect22" />
    <g
       fill="url(#e)"
       id="g24">
      <rect
         width="9"
         x="392.57"
         y="519.8"
         rx="0"
         height="9"
         id="rect23" />
      <rect
         width="9"
         x="404.57"
         y="519.8"
         rx="0"
         height="9"
         id="rect24" />
    </g>
    <rect
       width="9"
       x="404.57"
       y="531.8"
       fill="url(#d)"
       rx="0"
       height="9"
       id="rect25" />
    <g
       fill="#ffffff"
       id="g28">
      <path
         d="m12 22v2h-2v1h2v2h1v-2h2v-1h-2v-2z"
         transform="translate(384.57 499.8)"
         id="path25" />
      <rect
         width="1"
         x="523.8"
         y="-411.57"
         rx="0"
         height="5"
         transform="rotate(90)"
         id="rect26" />
      <g
         transform="translate(384.57 499.8)"
         id="g27">
        <path
           d="M12.5 34A.5 .5 0 0 0 12 34.5 .5 .5 0 0 0 12.5 35 .5 .5 0 0 0 13 34.5 .5 .5 0 0 0 12.5 34M10 36V37H15V36zM12.5 38A.5 .5 0 0 0 12 38.5 .5 .5 0 0 0 12.5 39 .5 .5 0 0 0 13 38.5 .5 .5 0 0 0 12.5 38"
           id="path26" />
        <path
           d="m22.707 34l-.707.707 1.793 1.793-1.793 1.793.707.707 1.793-1.793 1.793 1.793.707-.707-1.793-1.793 1.793-1.793-.707-.707-1.793 1.793z"
           id="path27" />
      </g>
    </g>
  </g>
</svg>
