<?xml version="1.0" encoding="UTF-8"?>
<svg width="48" height="48" version="1.1" xmlns="http://www.w3.org/2000/svg" xmlns:xlink="http://www.w3.org/1999/xlink">
    <defs>
        <linearGradient id="a" y1="543.8" y2="503.8" x2="0" gradientUnits="userSpaceOnUse"
                        gradientTransform="matrix(1.125 0 0 1-51.07 0)">
            <stop stop-color="#2a2c2f"/>
            <stop offset="1" stop-color="#424649"/>
        </linearGradient>
        <linearGradient id="b" y1="540.92" y2="522.55" x2="0" gradientUnits="userSpaceOnUse"
                        gradientTransform="matrix(1 0 0 1.14286 0-77.4)">
            <stop stop-color="#197cf1"/>
            <stop offset="1" stop-color="#05a0eb"/>
        </linearGradient>
        <linearGradient id="c" y1="542.8" y2="533.8" gradientUnits="userSpaceOnUse" x2="0"
                        gradientTransform="translate(0-28)">
            <stop stop-color="#bcb4a1"/>
            <stop offset="1" stop-color="#c5bfad"/>
        </linearGradient>
        <linearGradient id="d" y1="540.8" y2="531.8" gradientUnits="userSpaceOnUse" x2="0">
            <stop stop-color="#1e1f21"/>
            <stop offset="1" stop-color="#242628"/>
        </linearGradient>
        <linearGradient xlink:href="#d" id="e" y1="528.8" y2="519.8" gradientUnits="userSpaceOnUse" x2="0"/>
        <linearGradient id="f" y1="20" x1="32" y2="30" x2="42" gradientUnits="userSpaceOnUse">
            <stop stop-color="#383e51"/>
            <stop offset="1" stop-color="#655c6f" stop-opacity="0"/>
        </linearGradient>
        <linearGradient xlink:href="#f" id="g" y1="531.8" x1="404.57" y2="543.8" x2="416.57"
                        gradientUnits="userSpaceOnUse" gradientTransform="translate(-384.57-499.8)"/>
        <linearGradient xlink:href="#f" id="h" y1="531.8" x1="404.57" y2="543.8" gradientUnits="userSpaceOnUse"
                        x2="416.57" gradientTransform="translate(0-12)"/>
        <linearGradient xlink:href="#f" id="i" y1="531.8" x1="404.57" y2="543.8" gradientUnits="userSpaceOnUse"
                        x2="416.57" gradientTransform="translate(-12-12)"/>
        <linearGradient xlink:href="#f" id="j" y1="531.8" x1="404.57" y2="543.8" gradientUnits="userSpaceOnUse"
                        x2="416.57" gradientTransform="translate(-12)"/>
    </defs>
    <g transform="translate(-384.57-499.8)">
        <rect width="36" x="390.57" y="503.8" fill="url(#a)" height="40"/>
        <g fill-rule="evenodd">
            <path opacity=".2" fill="url(#h)" d="m413.57 519.8l-9 9 3 3h18z"/>
            <path opacity=".2" fill="url(#i)" d="m401.57 519.8l-9 9 3 3h18z"/>
            <path opacity=".2" fill="url(#j)" d="m401.57 531.8l-9 9 3 3h18z"/>
            <path opacity=".2" fill="url(#g)" d="m29 32l-9 9 3 3h18z" transform="translate(384.57 499.8)"/>
        </g>
        <rect width="36" x="390.57" y="542.8" fill="#1c1e20" height="1"/>
        <path opacity=".2" fill="url(#f)" fill-rule="evenodd" d="m40 20l-8 21 3 3h7v-22z"
              transform="translate(384.57 499.8)"/>
        <rect width="8" x="416.57" y="519.8" fill="#bd93f9" height="21"/>
        <g id="display-two-row">
            <rect width="32" x="392.57" y="505.8" fill="url(#c)" height="9"/>
            <path d="M392.57 510.3H424.57" stroke="#a9a290" stroke-width="0.5" opacity="0.7"/>
            <text x="394" y="509.2" font-family="monospace" font-size="3.2" font-weight="700" fill="#383432">Y:</text>
            <text x="423.2" y="509.2" text-anchor="end" font-family="monospace" font-size="3.2" font-weight="700"
                  fill="#383432">3.1416
            </text>
            <text x="394" y="513.3" font-family="monospace" font-size="3.2" font-weight="700" fill="#383432">X:</text>
            <text x="423.2" y="513.3" text-anchor="end" font-family="monospace" font-size="3.2" font-weight="700"
                  fill="#383432">2.7183
            </text>
        </g>
        <g id="textEnter" font-family="monospace" font-size="4" font-weight="700"
           fill="#fff" text-anchor="middle" dominant-baseline="central">
            <text x="420.57" y="522.3">E</text>
            <text x="420.57" y="526.3">N</text>
            <text x="420.57" y="530.3">T</text>
            <text x="420.57" y="534.3">E</text>
            <text x="420.57" y="538.3">R</text>
        </g>
        <rect width="9" x="392.57" y="531.8" fill="url(#d)" height="9"/>
        <g fill="url(#e)">
            <rect width="9" x="392.57" y="519.8" height="9"/>
            <rect width="9" x="404.57" y="519.8" height="9"/>
        </g>
        <rect width="9" x="404.57" y="531.8" fill="url(#d)" height="9"/>
        <g fill="#fff">
            <path d="m12 22v2h-2v1h2v2h1v-2h2v-1h-2v-2z" transform="translate(384.57 499.8)"/>
            <rect width="1" x="523.8" y="-411.57" height="5" transform="rotate(90)"/>
            <g transform="translate(384.57 499.8)">
                <path d="M12.5 34A.5.5 0 0 0 12 34.5.5.5 0 0 0 12.5 35 .5.5 0 0 0 13 34.5.5.5 0 0 0 12.5 34M10 36V37H15V36zM12.5 38A.5.5 0 0 0 12 38.5.5.5 0 0 0 12.5 39 .5.5 0 0 0 13 38.5.5.5 0 0 0 12.5 38"/>
                <path d="m22.707 34-.707.707 1.793 1.793-1.793 1.793.707.707 1.793-1.793 1.793 1.793.707-.707-1.793-1.793 1.793-1.793-.707-.707-1.793 1.793z"/>
            </g>
        </g>
    </g>
</svg>
